<svg width="614" height="571" viewBox="0 0 614 571" fill="none" xmlns="http://www.w3.org/2000/svg">
<path d="M606.931 33.4118L266.399 578.297C252.534 600.495 230.11 600.722 216.597 578.818C216.597 578.818 111.592 408.842 102.023 393.354C92.4553 377.865 102.125 353.501 123.529 339.194L487.046 96.2565C508.449 81.9502 507.234 79.6373 484.33 91.1052L91.4288 288.02C68.5471 299.493 38.747 290.958 25.2124 269.049L-47.3662 151.564C-60.9007 129.655 -51.5461 108.304 -26.5593 104.077L586.733 0.717589C611.715 -3.48599 620.796 11.2137 606.931 33.4118ZM37.6582 333.681C30.891 322.726 23.1134 324.293 20.3689 337.154L-2.51495 444.389C-5.25942 457.25 2.29399 464.191 14.2502 459.824L75.1908 437.599C87.1694 433.237 91.4137 420.696 84.6465 409.742L37.6582 333.681Z" fill="#C7C7C7" fill-opacity="0.03"/>
</svg>
