<svg width="564" height="448" viewBox="0 0 564 448" fill="none" xmlns="http://www.w3.org/2000/svg">
<path d="M1.00024 501.786C46.5945 381.556 149.196 305.07 246.331 260.713C302.569 235.032 361.841 212.353 420.369 193.93L423.826 192.842C513.892 164.495 587.964 141.183 683.794 90.7733C721.58 70.8972 764.922 35.909 792.714 1M56.3012 512.567C104.976 392.108 200.228 313.075 297.363 268.718C353.601 243.037 415.135 215.64 473.663 197.217C565.299 168.373 678.943 125.36 739.725 82.3993C775.291 57.2615 773.391 62.1929 812.619 20.8913M115.414 520.761C164.088 400.301 259.34 321.269 356.476 276.912C412.713 251.231 471.776 220.758 530.304 202.335C621.94 173.491 748.128 115.27 802.659 64.0632M173.961 532.593C222.635 412.134 276.318 359.448 389.657 292.99C441.685 262.483 501.571 236.618 582.579 205.754C693.175 163.617 796.479 112.405 851.01 61.1985M232.054 540.919C280.728 420.46 334.411 367.774 447.75 301.316C604.056 209.664 745.519 187.919 883.78 58.0876M284.905 548.791C347.399 422.977 401.69 366.987 515.029 300.529C671.335 208.876 767.495 197.525 905.756 67.6938" stroke="white" stroke-opacity="0.2" stroke-width="2" stroke-linecap="round"/>
</svg>
