<svg width="192" height="192" viewBox="0 0 192 192" fill="none" xmlns="http://www.w3.org/2000/svg">
<path d="M0 96C0 42.9807 42.9807 0 96 0C149.019 0 192 42.9807 192 96C192 149.019 149.019 192 96 192C42.9807 192 0 149.019 0 96Z" fill="#090B0A"/>
<path d="M36.6745 132V59.2H67.2505C71.7572 59.2 75.7092 59.9973 79.1065 61.592C82.5732 63.1173 85.2425 65.336 87.1145 68.248C89.0558 71.16 90.0265 74.6267 90.0265 78.648V79.792C90.0265 84.368 88.9172 88.0427 86.6985 90.816C84.5492 93.52 81.9145 95.4267 78.7945 96.536V98.2C81.4292 98.3387 83.5438 99.24 85.1385 100.904C86.7332 102.499 87.5305 104.821 87.5305 107.872V132H76.1945V109.432C76.1945 107.56 75.7092 106.069 74.7385 104.96C73.7678 103.851 72.2078 103.296 70.0585 103.296H47.9065V132H36.6745ZM47.9065 93.104H66.0025C70.0238 93.104 73.1438 92.0987 75.3625 90.088C77.5812 88.008 78.6905 85.2 78.6905 81.664V80.832C78.6905 77.296 77.5812 74.5227 75.3625 72.512C73.2132 70.432 70.0932 69.392 66.0025 69.392H47.9065V93.104Z" fill="white"/>
<path d="M98.6414 132V122.016H108.417V69.184H98.6414V59.2H127.761C137.468 59.2 144.887 61.6613 150.017 66.584C155.217 71.5067 157.817 78.9253 157.817 88.84V102.464C157.817 112.379 155.217 119.797 150.017 124.72C144.887 129.573 137.468 132 127.761 132H98.6414ZM119.753 121.808H127.865C134.175 121.808 138.855 120.213 141.905 117.024C144.956 113.835 146.481 109.085 146.481 102.776V88.424C146.481 82.0453 144.956 77.296 141.905 74.176C138.855 71.056 134.175 69.496 127.865 69.496H119.753V121.808Z" fill="#9DBD22"/>
</svg>
