<svg width="54" height="60" viewBox="0 0 54 60" fill="none" xmlns="http://www.w3.org/2000/svg">
<path d="M53.2083 0.708313H0.791672L5.41667 53.125L27 59.2916L48.5833 53.125L53.2083 0.708313Z" fill="#E65100"/>
<path d="M27 5.33331V54.5125L44.2667 49.5791L48.1208 5.33331H27Z" fill="#FF6D00"/>
<path d="M27 31.5417V25.375H40.2583L39.1792 43.1042L27 47.1125V40.6375L33.3208 38.4792L33.7833 31.5417H27V31.5417ZM40.7208 19.2084L41.1833 13.0417H27V19.2084H40.7208Z" fill="white"/>
<path d="M27 40.6375V47.1125L14.8208 43.1042L14.2042 34.625H20.3708L20.6792 38.4792L27 40.6375ZM19.4458 19.2084H27V13.0417H12.9708L14.05 31.5417H27V25.375H19.9083L19.4458 19.2084Z" fill="#EEEEEE"/>
</svg>
