<svg width="52" height="60" viewBox="0 0 52 60" fill="none" xmlns="http://www.w3.org/2000/svg">
<path d="M51.6571 0.7H0.657146L5.15715 53.1167L26.1571 59.2833L47.1571 53.1167L51.6571 0.7Z" fill="#0277BD"/>
<path d="M28 5.6333V54.8125L44.8 49.8791L48.55 5.6333H28Z" fill="#039BE5"/>
<path d="M41.65 13.3417H28V19.5083H35.35L34.9 25.675H28V31.8417H34.6L34.15 38.7792L28 40.9375V47.4125L39.85 43.4042L40.9 25.675L41.65 13.3417Z" fill="white"/>
<path d="M28 13.3417V19.5083H14.65L14.2 13.3417H28ZM21.1 25.675L21.4 31.8417H28V25.675H21.1ZM21.7 34.925H15.7L16.15 43.4042L28 47.4125V40.9375L21.85 38.7792L21.7 34.925Z" fill="#EEEEEE"/>
</svg>
