<svg width="47" height="47" viewBox="0 0 47 47" fill="none" xmlns="http://www.w3.org/2000/svg">
<path d="M16.7235 44.0258C17.3919 43.7382 17.86 43.0736 17.86 42.3V37.224C17.86 37.0388 17.875 36.8461 17.8985 36.6506C17.8854 36.6544 17.8732 36.6572 17.86 36.66C17.86 36.66 15.04 36.66 14.476 36.66C13.066 36.66 11.844 36.096 11.28 34.968C10.622 33.746 10.34 31.678 8.648 30.55C8.366 30.362 8.554 30.08 9.118 30.08C9.682 30.174 10.904 30.926 11.656 31.96C12.502 32.994 13.348 33.84 14.852 33.84C17.1898 33.84 18.4428 33.7225 19.1967 33.3183C20.0746 32.0126 21.2901 31.02 22.56 31.02V30.9965C17.2321 30.8254 13.8283 29.0545 12.2435 26.32C8.7984 26.3595 5.79886 26.7007 4.08712 26.9846C4.0326 26.6772 3.9856 26.3679 3.94518 26.0568C5.63436 25.7786 8.4976 25.4486 11.7895 25.3856C11.6842 25.1262 11.593 24.8602 11.5159 24.5876C8.2156 24.4203 5.3674 24.5509 3.82016 24.6788C3.80136 24.3667 3.77598 24.0555 3.77222 23.7397C5.32228 23.6128 8.0934 23.4859 11.3091 23.6354C11.2349 23.1654 11.1869 22.685 11.1869 22.1849C11.1869 20.5869 11.7509 18.8949 12.7849 17.4849C12.3149 15.8869 11.6569 12.5029 12.9729 11.2809C15.5109 11.2809 17.2969 12.5029 18.1429 13.2549C19.74 12.596 21.526 12.22 23.5 12.22C25.474 12.22 27.26 12.596 28.764 13.254C29.61 12.502 31.396 11.28 33.934 11.28C35.344 12.596 34.592 15.98 34.122 17.484C35.156 18.894 35.72 20.492 35.626 22.184C35.626 22.639 35.5837 23.0779 35.5226 23.5085C38.8117 23.3468 41.658 23.4765 43.2344 23.6043C43.2325 23.9211 43.2033 24.2304 43.1864 24.5434C41.6157 24.4137 38.6979 24.2802 35.329 24.4597C35.2453 24.7756 35.1438 25.083 35.0235 25.3809C38.3567 25.4242 41.2886 25.7466 43.0586 26.0286C43.0182 26.3407 42.9712 26.6499 42.9166 26.9564C41.1194 26.6687 38.0559 26.3322 34.5704 26.3153C33.0053 29.0206 29.6636 30.785 24.44 30.9909V31.02C26.884 31.02 29.14 34.686 29.14 37.224V42.3C29.14 43.0736 29.6081 43.7382 30.2765 44.0258C38.8878 41.1758 45.12 33.0542 45.12 23.5C45.12 11.5789 35.422 1.88 23.5 1.88C11.578 1.88 1.88 11.5789 1.88 23.5C1.88 33.0542 8.1122 41.1758 16.7235 44.0258Z" fill="#999999"/>
</svg>
