<svg width="54" height="60" viewBox="0 0 54 60" fill="none" xmlns="http://www.w3.org/2000/svg">
<path d="M52.95 0.974998C52.71 0.709998 52.365 0.559998 52.005 0.559998H1.99499C1.63499 0.559998 1.28999 0.709998 1.04999 0.974998C0.804991 1.24 0.684991 1.595 0.719991 1.955L5.22499 52.42C5.26999 52.95 5.63999 53.39 6.14999 53.54L26.64 59.39C26.755 59.425 26.875 59.44 26.99 59.44C27.11 59.44 27.23 59.425 27.345 59.39L47.855 53.54C48.365 53.39 48.73 52.95 48.78 52.42L53.28 1.955C53.315 1.595 53.195 1.24 52.95 0.974998ZM10.36 35.125L19.32 37.61V12.08H24.44V45.36L10.36 41.455V35.125Z" fill="#CFA90E"/>
<path d="M28 5.6333V54.8125L44.8 49.8791L48.55 5.6333H28Z" fill="#F1C40F"/>
<path d="M42.36 41.84L43.71 26.16L34.68 27.44V17.2H44.48L44.92 12.08H29.56V33.84L38.52 32.295L38.2 37.095L29.56 39.47V45.36L42.36 41.84Z" fill="white"/>
</svg>
