<svg width="13" height="13" viewBox="0 0 13 13" fill="none" xmlns="http://www.w3.org/2000/svg">
<path fill-rule="evenodd" clip-rule="evenodd" d="M0 2.5271H12.13V10.1083H0V2.5271Z" fill="#DDEEFF"/>
<path fill-rule="evenodd" clip-rule="evenodd" d="M12.13 2.52709H0V1.00831C0 0.45144 0.453382 0 1.01333 0H11.1167C11.6763 0 12.13 0.450895 12.13 1.00831V2.52709Z" fill="#BBDDFF"/>
<path fill-rule="evenodd" clip-rule="evenodd" d="M3.03252 1.76896C2.75339 1.76896 2.52711 1.54266 2.52711 1.26353C2.52711 0.984394 2.75337 0.758118 3.03252 0.758118C3.31168 0.758118 3.53793 0.984394 3.53793 1.26353C3.53793 1.54266 3.31168 1.76896 3.03252 1.76896ZM1.26356 1.76896C0.984425 1.76896 0.758148 1.54266 0.758148 1.26353C0.758148 0.984394 0.984425 0.758118 1.26356 0.758118C1.54269 0.758118 1.76899 0.984394 1.76899 1.26353C1.76899 1.54266 1.54269 1.76896 1.26356 1.76896Z" fill="white"/>
<path fill-rule="evenodd" clip-rule="evenodd" d="M2.02166 10.1083H0C0 8.55618 0.592143 7.00399 1.77638 5.81973C4.14493 3.4512 7.98507 3.4512 10.3536 5.81973L8.92408 7.24927C8.19237 6.51758 7.18153 6.06501 6.065 6.06501C3.83192 6.06501 2.02166 7.87527 2.02166 10.1083Z" fill="#0066FF"/>
<path fill-rule="evenodd" clip-rule="evenodd" d="M10.1084 10.1083H12.13C12.13 8.55615 11.5379 7.00396 10.3536 5.8197L8.9241 7.24924C9.65579 7.98095 10.1084 8.99177 10.1084 10.1083Z" fill="#CC66FF"/>
<path fill-rule="evenodd" clip-rule="evenodd" d="M4.63547 11.5379C3.84596 10.7484 3.84596 9.46834 4.63547 8.6788C5.42499 7.88931 9.81754 6.35583 9.81754 6.35583C9.81754 6.35583 8.28407 10.7484 7.49455 11.5379C6.70503 12.3274 5.42499 12.3274 4.63547 11.5379Z" fill="#66CCFF"/>
<path fill-rule="evenodd" clip-rule="evenodd" d="M6.06501 11.1192C5.50675 11.1192 5.05417 10.6666 5.05417 10.1084C5.05417 9.55011 5.50675 9.09753 6.06501 9.09753C6.62327 9.09753 7.07585 9.55011 7.07585 10.1084C7.07585 10.6666 6.62327 11.1192 6.06501 11.1192Z" fill="#0066FF"/>
</svg>
